<svg width="18" height="14" viewBox="0 0 18 14" fill="none" xmlns="http://www.w3.org/2000/svg">
<path d="M17.8301 4.89453V6.30273H17.1055V8.39453C17.1055 8.91406 17.0143 9.40169 16.832 9.85742C16.6497 10.3223 16.3945 10.7393 16.0664 11.1084C15.7383 11.4775 15.3555 11.7852 14.918 12.0312C14.4714 12.2865 13.9837 12.4551 13.4551 12.5371V14H11.9922V12.6055H6.16797V14H4.70508V12.5371C4.17643 12.4551 3.6888 12.2865 3.24219 12.0312C2.80469 11.7852 2.42415 11.4775 2.10059 11.1084C1.77702 10.7393 1.51953 10.3223 1.32812 9.85742C1.14583 9.40169 1.05469 8.91406 1.05469 8.39453V6.30273H0.330078V4.89453H15.6426V4.19727H14.918V2.80273H15.6426V2.10547C15.6426 1.90495 15.5719 1.73633 15.4307 1.59961C15.2894 1.46289 15.1185 1.39453 14.918 1.39453C14.7174 1.39453 14.5443 1.46289 14.3984 1.59961C14.2526 1.73633 14.1797 1.90495 14.1797 2.10547V2.80273H12.7305V2.10547C12.7305 1.52214 12.9424 1.02539 13.3662 0.615234C13.79 0.205078 14.3073 0 14.918 0C15.5195 0 16.0345 0.205078 16.4629 0.615234C16.8913 1.02539 17.1055 1.52214 17.1055 2.10547V2.80273H17.8301V4.19727H17.1055V4.89453H17.8301ZM15.6426 6.30273H2.51758V8.39453C2.51758 8.78646 2.59505 9.15104 2.75 9.48828C2.90495 9.82552 3.1123 10.1217 3.37207 10.377C3.63184 10.6322 3.93945 10.8327 4.29492 10.9785C4.65039 11.1243 5.02865 11.1973 5.42969 11.1973H12.7305C13.1315 11.1973 13.5098 11.1243 13.8652 10.9785C14.2207 10.8327 14.5283 10.6322 14.7881 10.377C15.0479 10.1217 15.2552 9.82552 15.4102 9.48828C15.5651 9.15104 15.6426 8.78646 15.6426 8.39453V6.30273ZM13.4551 9.80273C13.2546 9.80273 13.0837 9.73438 12.9424 9.59766C12.8011 9.46094 12.7305 9.29688 12.7305 9.10547C12.7305 8.90495 12.8011 8.73633 12.9424 8.59961C13.0837 8.46289 13.2546 8.39453 13.4551 8.39453C13.6556 8.39453 13.8265 8.46289 13.9678 8.59961C14.109 8.73633 14.1797 8.90495 14.1797 9.10547C14.1797 9.29688 14.109 9.46094 13.9678 9.59766C13.8265 9.73438 13.6556 9.80273 13.4551 9.80273Z" fill="#93959E"/>
</svg>
