<svg width="21" height="14" viewBox="0 0 21 14" fill="none" xmlns="http://www.w3.org/2000/svg">
<path d="M19.2314 6.04297H10.7139C10.6227 5.58724 10.4587 5.16797 10.2217 4.78516C9.99382 4.39323 9.71126 4.05599 9.37402 3.77344C9.03678 3.49089 8.65397 3.26758 8.22559 3.10352C7.80631 2.93945 7.3597 2.85742 6.88574 2.85742H4.69824V0.792969C4.69824 0.574219 4.62077 0.38737 4.46582 0.232422C4.31087 0.0774736 4.12858 0 3.91895 0H0.788086C0.569336 0 0.384766 0.0774736 0.234375 0.232422C0.0839844 0.38737 0.00878906 0.574219 0.00878906 0.792969V13.207C0.00878906 13.4258 0.0839844 13.6126 0.234375 13.7676C0.384766 13.9225 0.569336 14 0.788086 14H3.91895C4.12858 14 4.31087 13.9225 4.46582 13.7676C4.62077 13.6126 4.69824 13.4258 4.69824 13.207V10.8145H15.3213V13.207C15.3213 13.4258 15.3965 13.6126 15.5469 13.7676C15.6973 13.9225 15.8818 14 16.1006 14H19.2314C19.4411 14 19.6234 13.9225 19.7783 13.7676C19.9333 13.6126 20.0107 13.4258 20.0107 13.207V6.83594C20.0107 6.61719 19.9333 6.43034 19.7783 6.27539C19.6234 6.12044 19.4411 6.04297 19.2314 6.04297ZM3.13965 12.4141H1.56738V1.58594H3.13965V12.4141ZM4.69824 4.45703H6.88574C7.39616 4.45703 7.85189 4.60514 8.25293 4.90137C8.65397 5.19759 8.93652 5.57812 9.10059 6.04297H4.69824V4.45703ZM18.4521 12.4141H16.8799V10.8145H18.4521V12.4141ZM18.4521 9.22852H4.69824V7.64258H18.4521V9.22852Z" fill="#93959E"/>
</svg>
