<svg width="54" height="38" viewBox="0 0 54 38" fill="none" xmlns="http://www.w3.org/2000/svg">
<path d="M17.0801 29.75C12.7324 29.75 9.20508 26.2227 9.20508 21.875V2.84375C9.20508 1.77734 10.0254 0.875 11.1738 0.875H43.3301C49.0723 0.875 53.8301 5.63281 53.8301 11.375C53.8301 17.1992 49.0723 21.875 43.3301 21.875H40.7051C40.7051 26.2227 37.1777 29.75 32.8301 29.75H17.0801ZM43.3301 6.125H40.7051V16.625H43.3301C46.2012 16.625 48.5801 14.3281 48.5801 11.375C48.5801 8.50391 46.2012 6.125 43.3301 6.125ZM47.1855 37.625H5.26758C1.33008 37.625 0.263672 32.375 2.31445 32.375H50.1387C52.1895 32.375 51.123 37.625 47.1855 37.625Z" fill="#E81B93"/>
</svg>
