<svg width="30" height="46" viewBox="0 0 30 46" fill="none" xmlns="http://www.w3.org/2000/svg">
<rect width="30" height="42" fill="#F94C4C"/>
<g clip-path="url(#clip0_420_677)">
<path d="M20.1201 19.9609H15.8838L19.54 13.7383C19.5635 13.7031 19.5811 13.665 19.5928 13.624C19.6045 13.583 19.6104 13.5391 19.6104 13.4922C19.6104 13.4453 19.6045 13.4014 19.5928 13.3604C19.5811 13.3193 19.5635 13.2812 19.54 13.2461C19.4932 13.1758 19.4316 13.1172 19.3555 13.0703C19.2793 13.0234 19.1943 13 19.1006 13H12.9658C12.9658 13 12.9629 13 12.957 13C12.9512 13 12.9482 13 12.9482 13C12.8428 13 12.7461 13.0322 12.6582 13.0967C12.5703 13.1611 12.5088 13.2402 12.4736 13.334L9.41504 22.2812C9.40332 22.3047 9.39453 22.3281 9.38867 22.3516C9.38281 22.375 9.37988 22.3984 9.37988 22.4219C9.37988 22.4805 9.38867 22.5361 9.40625 22.5889C9.42383 22.6416 9.4502 22.6855 9.48535 22.7207C9.53223 22.7793 9.59082 22.8291 9.66113 22.8701C9.73145 22.9111 9.80762 22.9316 9.88965 22.9316H14.2314L11.4717 29.1895C11.46 29.2246 11.4482 29.2568 11.4365 29.2861C11.4248 29.3154 11.4189 29.3477 11.4189 29.3828C11.4189 29.4766 11.4424 29.5586 11.4893 29.6289C11.5361 29.6992 11.5947 29.7578 11.665 29.8047C11.7002 29.8281 11.7412 29.8457 11.7881 29.8574C11.835 29.8691 11.8818 29.875 11.9287 29.875C12.0107 29.875 12.084 29.8604 12.1484 29.8311C12.2129 29.8018 12.2686 29.7637 12.3154 29.7168L20.5068 20.7871C20.542 20.7402 20.5713 20.6875 20.5947 20.6289C20.6182 20.5703 20.6299 20.5117 20.6299 20.4531C20.6299 20.418 20.627 20.3828 20.6211 20.3477C20.6152 20.3125 20.6006 20.2773 20.5771 20.2422C20.542 20.1602 20.4834 20.0928 20.4014 20.04C20.3193 19.9873 20.2256 19.9609 20.1201 19.9609Z" fill="white"/>
</g>
<path d="M0 42H14V46H3C1.34315 46 0 44.6569 0 43V42Z" fill="#F94C4C"/>
<path d="M16 42H30V43C30 44.6569 28.6569 46 27 46H16V42Z" fill="#F94C4C"/>
<defs>
<clipPath id="clip0_420_677">
<rect width="11.25" height="18" fill="white" transform="matrix(1 0 0 -1 9.37988 31)"/>
</clipPath>
</defs>
</svg>
