<svg width="53" height="38" viewBox="0 0 53 38" fill="none" xmlns="http://www.w3.org/2000/svg">
<path d="M50.9414 2.76172C51.8438 3.17188 52.5 4.15625 52.5 5.14062V31.2266C52.5 32.7031 51.1875 33.7695 49.793 33.7695C49.5469 33.7695 49.2188 33.7695 48.9727 33.6875C46.4297 32.8672 43.8867 32.5391 41.3438 32.5391C31.2539 32.5391 21.1641 37.625 11.0742 37.625C7.875 37.625 4.67578 37.1328 1.47656 35.8203C0.574219 35.4102 0 34.4258 0 33.4414V7.35547C0 5.87891 1.23047 4.73047 2.625 4.73047C2.87109 4.73047 3.19922 4.8125 3.44531 4.89453C5.98828 5.71484 8.53125 6.04297 11.0742 6.04297C21.1641 6.04297 31.2539 0.875 41.3438 0.875C44.543 0.875 47.7422 1.44922 50.9414 2.76172ZM3.9375 9.16016V14.082C6.48047 14.082 8.53125 12.2773 9.02344 9.89844C7.30078 9.73438 5.57812 9.57031 3.9375 9.16016ZM3.9375 32.5391C5.57812 33.1133 7.30078 33.5234 9.10547 33.6055C9.02344 30.8164 6.72656 28.6016 3.9375 28.6016V32.5391ZM26.25 27.125C29.8594 27.125 32.8125 23.6797 32.8125 19.25C32.8125 14.9023 29.8594 11.375 26.25 11.375C22.5586 11.375 19.6875 14.9023 19.6875 19.25C19.6875 23.6797 22.5586 27.125 26.25 27.125ZM48.5625 29.4219V24.7461C46.3477 24.9922 44.543 26.6328 44.0508 28.7656C45.6094 28.8477 47.0859 29.0938 48.5625 29.4219ZM48.5625 10.0625V6.04297C47.0859 5.55078 45.5273 5.22266 43.9688 5.05859C44.0508 7.60156 46.0195 9.73438 48.5625 10.0625Z" fill="#FF0787"/>
</svg>
