<svg width="24" height="20" viewBox="0 0 24 20" fill="none" xmlns="http://www.w3.org/2000/svg">
<g clip-path="url(#clip0_420_695)">
<path d="M17.1514 0C15.8493 0 14.7718 0.273438 13.9189 0.820312C13.0661 1.36719 12.4248 1.86849 11.9951 2.32422C11.5654 1.86849 10.9209 1.36719 10.0615 0.820312C9.20215 0.273438 8.12793 0 6.83887 0C5.95345 0 5.14616 0.188803 4.41699 0.566406C3.70085 0.94401 3.08236 1.45182 2.56152 2.08984C2.04069 2.72787 1.64355 3.46354 1.37012 4.29688C1.08366 5.13021 0.94043 6.0026 0.94043 6.91406C0.94043 7.59115 1.06413 8.41797 1.31152 9.39453C1.5459 10.3711 2.04069 11.4323 2.7959 12.5781C3.55111 13.724 4.63184 14.9219 6.03809 16.1719C7.44434 17.4219 9.31283 18.6654 11.6436 19.9023C11.7477 19.9674 11.8617 20 11.9854 20C12.109 20 12.2295 19.9674 12.3467 19.9023C14.6774 18.6654 16.5459 17.4219 17.9521 16.1719C19.3584 14.9219 20.4391 13.724 21.1943 12.5781C21.9495 11.4323 22.4443 10.3711 22.6787 9.39453C22.9261 8.41797 23.0498 7.59115 23.0498 6.91406C23.0498 5.97656 22.9066 5.09115 22.6201 4.25781C22.3206 3.42448 21.9137 2.69206 21.3994 2.06055C20.8851 1.42904 20.2633 0.924479 19.5342 0.546875C18.818 0.182291 18.0238 0 17.1514 0ZM11.9951 18.4375C10.8753 17.8255 9.74902 17.1159 8.61621 16.3086C7.47038 15.5143 6.43848 14.6289 5.52051 13.6523C4.60254 12.6758 3.8571 11.6211 3.28418 10.4883C2.69824 9.35547 2.40527 8.16406 2.40527 6.91406C2.40527 6.21094 2.50944 5.53385 2.71777 4.88281C2.92611 4.21875 3.22233 3.63607 3.60645 3.13477C3.99056 2.63346 4.45605 2.22656 5.00293 1.91406C5.5498 1.61458 6.16178 1.46484 6.83887 1.46484C7.86751 1.46484 8.78548 1.72201 9.59277 2.23633C10.4001 2.75065 10.9925 3.30078 11.3701 3.88672C11.4352 3.99088 11.5231 4.07552 11.6338 4.14062C11.7445 4.20573 11.8649 4.23828 11.9951 4.23828C12.1253 4.23828 12.2458 4.20573 12.3564 4.14062C12.4671 4.07552 12.555 3.9974 12.6201 3.90625V3.88672C12.6201 3.88672 12.7178 3.75651 12.9131 3.49609C13.1084 3.2487 13.3949 2.97201 13.7725 2.66602C14.1501 2.36003 14.6188 2.08333 15.1787 1.83594C15.7516 1.58854 16.4092 1.46484 17.1514 1.46484C17.8415 1.46484 18.46 1.61458 19.0068 1.91406C19.5537 2.22656 20.016 2.63672 20.3936 3.14453C20.7712 3.65234 21.0641 4.23177 21.2725 4.88281C21.4678 5.54688 21.5654 6.22396 21.5654 6.91406C21.5654 8.16406 21.279 9.35547 20.7061 10.4883C20.1201 11.6211 19.3714 12.6758 18.46 13.6523C17.5485 14.6289 16.5199 15.5143 15.374 16.3086C14.2412 17.1159 13.1149 17.8255 11.9951 18.4375Z" fill="#A6A7AF"/>
</g>
<defs>
<clipPath id="clip0_420_695">
<rect width="22.11" height="20" fill="white" transform="matrix(1 0 0 -1 0.94043 20)"/>
</clipPath>
</defs>
</svg>
