<svg width="38" height="43" viewBox="0 0 38 43" fill="none" xmlns="http://www.w3.org/2000/svg">
<path d="M33.4824 18.625C35.6152 18.625 37.4199 20.4297 37.4199 22.5625V38.3125C37.4199 40.5273 35.6152 42.25 33.4824 42.25H4.60742C2.39258 42.25 0.669922 40.5273 0.669922 38.3125V22.5625C0.669922 20.4297 2.39258 18.625 4.60742 18.625H6.57617V12.7188C6.57617 5.91016 12.1543 0.25 19.0449 0.25C25.8535 0.25 31.5137 5.91016 31.5137 12.7188V18.625H33.4824ZM24.9512 18.625V12.7188C24.9512 9.51953 22.2441 6.8125 19.0449 6.8125C15.7637 6.8125 13.1387 9.51953 13.1387 12.7188V18.625H24.9512Z" fill="#E81B93"/>
</svg>
