<svg width="25" height="19" viewBox="0 0 25 19" fill="none" xmlns="http://www.w3.org/2000/svg">
<path d="M20.2051 18.0998H16.2676C15.9395 18.0998 15.7051 17.8654 15.7051 17.5373V15.6623C15.7051 15.381 15.9395 15.0998 16.2676 15.0998H20.2051C21.002 15.0998 21.7051 14.4435 21.7051 13.5998V4.59979C21.7051 3.80292 21.002 3.09979 20.2051 3.09979H16.2676C15.9395 3.09979 15.7051 2.86542 15.7051 2.53729V0.662292C15.7051 0.381042 15.9395 0.0997925 16.2676 0.0997925H20.2051C22.6895 0.0997925 24.7051 2.11542 24.7051 4.59979V13.5998C24.7051 16.0842 22.6895 18.0998 20.2051 18.0998ZM18.002 8.67792C18.4238 9.14667 18.4238 9.84979 18.002 10.2717L10.127 18.1467C9.42383 18.8498 8.20508 18.381 8.20508 17.3498V12.8498H1.83008C1.17383 12.8498 0.705078 12.381 0.705078 11.7248V7.22479C0.705078 6.61542 1.17383 6.09979 1.83008 6.09979H8.20508V1.59979C8.20508 0.615417 9.42383 0.0997925 10.127 0.802917L18.002 8.67792Z" fill="#FE4080"/>
</svg>
