<svg width="15" height="14" viewBox="0 0 15 14" fill="none" xmlns="http://www.w3.org/2000/svg">
<path d="M14.1133 10.7598H12.5137V3.24023H14.1133C14.1133 3.24023 14.1156 3.24023 14.1201 3.24023C14.1247 3.24023 14.1315 3.24023 14.1406 3.24023C14.2865 3.24023 14.4141 3.18783 14.5234 3.08301C14.6328 2.97819 14.6875 2.84831 14.6875 2.69336C14.6875 2.54753 14.6328 2.41992 14.5234 2.31055C14.4141 2.20117 14.2865 2.14648 14.1406 2.14648C14.1315 2.14648 14.1247 2.14648 14.1201 2.14648C14.1156 2.14648 14.1133 2.14648 14.1133 2.14648H12.5137V0.546875C12.5137 0.391927 12.459 0.262044 12.3496 0.157227C12.2402 0.0524092 12.1126 0 11.9668 0C11.8118 0 11.682 0.0524092 11.5771 0.157227C11.4723 0.262044 11.4199 0.391927 11.4199 0.546875V2.14648H3.90039V0.546875C3.90039 0.391927 3.84798 0.262044 3.74316 0.157227C3.63835 0.0524092 3.50846 0 3.35352 0C3.20768 0 3.08008 0.0524092 2.9707 0.157227C2.86133 0.262044 2.80664 0.391927 2.80664 0.546875V2.14648H1.20703C1.05208 2.14648 0.922201 2.20117 0.817383 2.31055C0.712565 2.41992 0.660156 2.54753 0.660156 2.69336C0.660156 2.84831 0.712565 2.97819 0.817383 3.08301C0.922201 3.18783 1.05208 3.24023 1.20703 3.24023H2.80664V10.7598H1.20703C1.05208 10.7598 0.922201 10.8122 0.817383 10.917C0.712565 11.0218 0.660156 11.1517 0.660156 11.3066C0.660156 11.4525 0.712565 11.5801 0.817383 11.6895C0.922201 11.7988 1.05208 11.8535 1.20703 11.8535H2.80664V13.4531C2.80664 13.6081 2.86133 13.738 2.9707 13.8428C3.08008 13.9476 3.20768 14 3.35352 14C3.50846 14 3.63835 13.9476 3.74316 13.8428C3.84798 13.738 3.90039 13.6081 3.90039 13.4531V11.8535H11.4199V13.4531C11.4199 13.6081 11.4723 13.738 11.5771 13.8428C11.682 13.9476 11.8118 14 11.9668 14C12.1126 14 12.2402 13.9476 12.3496 13.8428C12.459 13.738 12.5137 13.6081 12.5137 13.4531V11.8535H14.1133C14.2682 11.8535 14.3981 11.7988 14.5029 11.6895C14.6077 11.5801 14.6602 11.4525 14.6602 11.3066C14.6602 11.1517 14.6077 11.0218 14.5029 10.917C14.3981 10.8122 14.2682 10.7598 14.1133 10.7598ZM11.4199 6.45312H8.20703V3.24023H11.4199V6.45312ZM7.11328 3.24023V6.45312H3.90039V3.24023H7.11328ZM3.90039 7.54688H7.11328V10.7598H3.90039V7.54688ZM8.20703 10.7598V7.54688H11.4199V10.7598H8.20703Z" fill="#93959E"/>
</svg>
