<svg width="25" height="19" viewBox="0 0 25 19" fill="none" xmlns="http://www.w3.org/2000/svg">
<path d="M18.0391 0.269531C17.974 0.191406 17.8893 0.129557 17.7852 0.0839844C17.681 0.0384121 17.5703 0.015625 17.4531 0.015625C17.3359 0.015625 17.2285 0.0384121 17.1309 0.0839844C17.0332 0.129557 16.9453 0.191406 16.8672 0.269531C16.8021 0.347656 16.7467 0.438803 16.7012 0.542969C16.6556 0.647135 16.6328 0.757812 16.6328 0.875V3.47266H10.832C10.5977 3.47266 10.4023 3.55729 10.2461 3.72656C10.0898 3.89583 10.0117 4.09766 10.0117 4.33203C10.0117 4.56641 10.0898 4.76823 10.2461 4.9375C10.4023 5.10677 10.5977 5.19141 10.832 5.19141H17.4531C17.6875 5.19141 17.8861 5.10677 18.0488 4.9375C18.2116 4.76823 18.293 4.56641 18.293 4.33203V2.96484L22.082 6.91016L18.293 10.875V9.50781C18.293 9.27344 18.2116 9.07161 18.0488 8.90234C17.8861 8.73307 17.6875 8.64844 17.4531 8.64844H8.35156V6.05078C8.35156 5.81641 8.27018 5.61458 8.10742 5.44531C7.94466 5.27604 7.74609 5.19141 7.51172 5.19141C7.39453 5.19141 7.28711 5.21419 7.18945 5.25977C7.0918 5.30534 7.00391 5.36719 6.92578 5.44531L1.14453 11.4805C1.06641 11.5586 1.00456 11.6497 0.958984 11.7539C0.913411 11.8581 0.890625 11.9753 0.890625 12.1055C0.890625 12.2227 0.913411 12.3333 0.958984 12.4375C1.00456 12.5417 1.06641 12.6328 1.14453 12.7109L6.92578 18.7461C7.00391 18.8242 7.09505 18.8861 7.19922 18.9316C7.30339 18.9772 7.40755 19 7.51172 19C7.57682 19 7.63542 18.9935 7.6875 18.9805C7.73958 18.9674 7.79167 18.9544 7.84375 18.9414C7.98698 18.8633 8.10742 18.7559 8.20508 18.6191C8.30273 18.4824 8.35156 18.3229 8.35156 18.1406V15.543H14.1523C14.3737 15.543 14.5658 15.4583 14.7285 15.2891C14.8913 15.1198 14.9727 14.918 14.9727 14.6836C14.9727 14.4492 14.8913 14.2474 14.7285 14.0781C14.5658 13.9089 14.3737 13.8242 14.1523 13.8242H7.51172C7.29036 13.8242 7.09831 13.9089 6.93555 14.0781C6.77279 14.2474 6.69141 14.4492 6.69141 14.6836V16.0508L2.88281 12.1055L6.69141 8.14062V9.50781C6.69141 9.74219 6.77279 9.94401 6.93555 10.1133C7.09831 10.2826 7.29036 10.3672 7.51172 10.3672H16.6328V12.9648C16.6328 13.1992 16.7142 13.401 16.877 13.5703C17.0397 13.7396 17.2318 13.8242 17.4531 13.8242C17.5703 13.8242 17.681 13.8014 17.7852 13.7559C17.8893 13.7103 17.974 13.6484 18.0391 13.5703L23.8398 7.53516C23.918 7.45703 23.9798 7.36589 24.0254 7.26172C24.071 7.15755 24.0938 7.04036 24.0938 6.91016C24.0938 6.79297 24.071 6.68229 24.0254 6.57812C23.9798 6.47396 23.918 6.38281 23.8398 6.30469L18.0391 0.269531Z" fill="#A6A7AF"/>
</svg>
